<svg xmlns="http://www.w3.org/2000/svg" xmlns:xlink="http://www.w3.org/1999/xlink" version="1.1" id="Your_Icon" x="0px" y="0px" width="100px" height="87.194px" viewBox="0 0 100 87.194" enable-background="new 0 0 100 87.194" xml:space="preserve">
<path fill="#000000" d="M87.585,69.41l-11.587-5.565c-0.005-0.002-0.009-0.004-0.014-0.006c1.016-1.934,1.825-3.992,2.39-6.151  c0.208,0.046,0.42,0.076,0.635,0.076c0.427,0,0.861-0.094,1.272-0.291l9.472-4.549l6.628,1.563c1.581,0.372,3.167-0.607,3.54-2.189  c0.373-1.582-0.607-3.167-2.189-3.54l-8.652-2.04l-9.781,4.698c0.015-0.382,0.029-0.765,0.029-1.151  c0-3.124-0.495-6.132-1.402-8.955c0.114-0.038,0.226-0.083,0.337-0.136l11.587-5.565l4.144-14.005  c0.461-1.559-0.428-3.196-1.987-3.657c-1.558-0.46-3.196,0.429-3.657,1.987l-3.403,11.5l-9.232,4.434  c-0.047,0.023-0.091,0.049-0.137,0.074c-2.42-4.298-5.893-7.922-10.072-10.521c1.447-2.554,2.286-5.493,2.286-8.623  c0-3.372-2.378-8.748-4.683-12.507c-2.255-3.678-4.485-5.81-4.485-3.004c0,1.081,0.456,2.048,1.007,3.004  c0.85,1.474,1.977,2.921,1.977,4.72c0,6.403-5.183,11.597-11.522,11.632c-6.395-0.035-11.569-5.229-11.569-11.632  c0-1.799,1.079-3.246,1.93-4.72c0.551-0.956,1.007-1.923,1.007-3.004c0-2.806-2.23-0.674-4.485,3.004  c-2.305,3.76-4.636,9.135-4.636,12.507c0,3.149,0.824,6.105,2.262,8.669c-4.138,2.59-7.578,6.185-9.984,10.446  c-0.028-0.014-0.054-0.031-0.082-0.045l-9.232-4.434l-3.403-11.5c-0.461-1.559-2.1-2.449-3.657-1.987  c-1.559,0.461-2.448,2.098-1.987,3.657l4.144,14.005l11.587,5.565c0.09,0.043,0.182,0.079,0.273,0.113  c-0.912,2.829-1.41,5.845-1.41,8.978c0,0.414,0.014,0.825,0.031,1.236l-9.957-4.782l-8.652,2.04  c-1.582,0.373-2.562,1.958-2.189,3.54c0.373,1.582,1.958,2.562,3.54,2.189l6.628-1.563l9.472,4.549  c0.411,0.197,0.845,0.291,1.272,0.291c0.271,0,0.54-0.038,0.799-0.111c0.568,2.181,1.385,4.261,2.413,6.212L12.66,69.41  L8.516,83.416c-0.461,1.559,0.428,3.196,1.987,3.657c0.279,0.082,0.56,0.122,0.836,0.122c1.27,0,2.442-0.829,2.821-2.109l3.403-11.5  l9.232-4.434c0.233-0.112,0.441-0.253,0.63-0.412c5.362,6.57,13.521,10.767,22.662,10.767c9.158,0,17.329-4.213,22.691-10.803  c0.199,0.175,0.422,0.328,0.672,0.449l9.232,4.434l3.403,11.5c0.379,1.28,1.551,2.109,2.821,2.109c0.277,0,0.558-0.039,0.836-0.122  c1.559-0.461,2.448-2.098,1.987-3.657L87.585,69.41z"/>
</svg>